<svg width="1280" height="1021" viewBox="0 0 1280 1021" fill="none" xmlns="http://www.w3.org/2000/svg">
<g style="mix-blend-mode:overlay" opacity="0.24">
<path d="M1101.36 -388.746C864.314 -547.598 547.248 -298.121 552.138 -329.52C615.752 -738.127 254.408 -827.885 147.64 -833.894C59.9839 -838.824 -71.88 -772.756 -173.651 -668.282C-297.366 -573.97 -309.601 -226.427 -300.255 -64.4439C-237.507 454.814 -65.0966 1051.35 -10.8419 998.736C39 891 91.2272 814.438 251.5 691C456 533.5 587.138 669.5 861.5 583C926.5 562.507 1013 473.5 1124.5 342C1338.5 47 1277 -271.037 1101.36 -388.746Z" fill="white"/>
<path d="M1101.36 -388.746C864.314 -547.598 547.248 -298.121 552.138 -329.52C615.752 -738.127 254.408 -827.885 147.64 -833.894C59.9839 -838.824 -71.88 -772.756 -173.651 -668.282C-297.366 -573.97 -309.601 -226.427 -300.255 -64.4439C-237.507 454.814 -65.0966 1051.35 -10.8419 998.736C39 891 91.2272 814.438 251.5 691C456 533.5 587.138 669.5 861.5 583C926.5 562.507 1013 473.5 1124.5 342C1338.5 47 1277 -271.037 1101.36 -388.746Z" stroke="white" stroke-width="37.4939" stroke-miterlimit="3" stroke-linecap="round" stroke-linejoin="round"/>
</g>
</svg>
