<svg width="1602" height="1874" viewBox="0 0 1602 1874" fill="none" xmlns="http://www.w3.org/2000/svg">
<g style="mix-blend-mode:overlay" opacity="0.24">
<path d="M1423.36 464.254C1186.31 305.402 869.248 554.879 874.138 523.48C937.752 114.873 576.408 25.1147 469.64 19.1056C381.984 14.1764 250.12 80.2443 148.349 184.718C24.6341 279.03 12.3986 626.573 21.7452 788.556C84.4929 1307.81 256.903 1904.35 311.158 1851.74C361 1744 413.227 1667.44 573.5 1544C778 1386.5 909.138 1522.5 1183.5 1436C1248.5 1415.51 1335 1326.5 1446.5 1195C1660.5 900 1599 581.963 1423.36 464.254Z" fill="white"/>
<path d="M1423.36 464.254C1186.31 305.402 869.248 554.879 874.138 523.48C937.752 114.873 576.408 25.1147 469.64 19.1056C381.984 14.1764 250.12 80.2443 148.349 184.718C24.6341 279.03 12.3986 626.573 21.7452 788.556C84.4929 1307.81 256.903 1904.35 311.158 1851.74C361 1744 413.227 1667.44 573.5 1544C778 1386.5 909.138 1522.5 1183.5 1436C1248.5 1415.51 1335 1326.5 1446.5 1195C1660.5 900 1599 581.963 1423.36 464.254Z" stroke="white" stroke-width="37.4939" stroke-miterlimit="3" stroke-linecap="round" stroke-linejoin="round"/>
</g>
</svg>
