<?xml version="1.0" standalone="no"?>
<!DOCTYPE svg PUBLIC "-//W3C//DTD SVG 20010904//EN"
 "http://www.w3.org/TR/2001/REC-SVG-20010904/DTD/svg10.dtd">
<svg version="1.0" xmlns="http://www.w3.org/2000/svg"
 width="483.000000pt" height="483.000000pt" viewBox="0 0 483.000000 483.000000"
 preserveAspectRatio="xMidYMid meet">
<metadata>
Created by potrace 1.14, written by Peter Selinger 2001-2017
</metadata>
<g transform="translate(0.000000,483.000000) scale(0.100000,-0.100000)"
fill="#000000" stroke="none">
<path d="M1533 4315 c-117 -24 -195 -54 -265 -104 -145 -102 -289 -304 -377
-529 -27 -68 -26 -80 4 -94 31 -14 50 0 66 50 20 63 98 213 152 292 62 90 155
187 221 229 185 117 572 132 792 30 206 -95 361 -281 440 -529 21 -67 30 -80
58 -80 25 0 52 22 93 77 15 21 30 40 33 43 3 3 23 28 44 55 68 86 240 250 314
299 155 102 296 148 442 142 121 -6 206 -30 309 -87 207 -117 353 -338 407
-614 25 -130 24 -402 -1 -525 -3 -14 -8 -41 -11 -60 -9 -57 -33 -146 -60 -223
-28 -77 -132 -285 -164 -327 l-19 -25 -25 28 c-49 52 -117 26 -152 -60 -10
-23 -17 -77 -19 -149 -2 -61 -6 -121 -10 -133 -8 -26 -2 -26 66 -2 30 10 56
18 59 19 18 1 99 26 121 37 36 19 89 75 96 102 5 23 -13 83 -26 83 -3 0 -14 7
-23 14 -17 12 -14 20 35 102 105 175 172 355 205 549 24 136 22 112 26 290 3
83 0 177 -5 210 -5 33 -11 71 -13 85 -14 95 -57 218 -108 315 -113 214 -302
369 -523 431 -81 22 -251 26 -340 7 -164 -34 -369 -162 -528 -328 -39 -41
-170 -195 -188 -222 -15 -22 -16 -20 -47 55 -108 265 -291 444 -537 527 -143
49 -361 56 -542 20z"/>
<path d="M1600 3499 c-69 -41 -212 -212 -280 -336 -20 -36 -30 -43 -71 -53
-26 -6 -58 -11 -71 -10 -50 4 -65 -1 -105 -40 -39 -37 -90 -105 -107 -140 -13
-29 -86 -145 -86 -138 -1 30 192 360 272 466 47 62 48 64 22 58 -46 -12 -80
-43 -127 -114 -58 -86 -223 -418 -273 -546 -30 -77 -46 -103 -68 -117 -16 -10
-34 -15 -39 -12 -17 10 0 116 36 223 19 58 75 200 125 316 93 216 122 294 122
319 0 28 -37 54 -67 49 -15 -3 -28 -6 -28 -7 -64 -133 -112 -219 -172 -305
-152 -217 -285 -352 -347 -352 -40 0 -5 95 101 280 121 211 163 308 163 378
-1 85 -40 82 -91 -6 -104 -179 -292 -346 -400 -354 -29 -3 -34 0 -37 21 -3 17
-6 20 -12 11 -12 -20 10 -70 35 -80 108 -41 304 133 436 387 13 24 24 41 27
38 5 -4 -66 -150 -123 -255 -20 -36 -68 -123 -107 -193 -78 -142 -94 -202 -63
-237 84 -92 375 181 539 505 66 132 39 43 -106 -344 -67 -178 -81 -227 -85
-290 -6 -91 10 -121 67 -126 21 -2 34 -8 32 -15 -13 -55 -6 -120 14 -127 5 -2
18 29 28 69 18 68 55 159 114 274 24 49 27 51 67 51 78 0 173 75 223 175 26
52 40 106 36 134 -3 17 4 23 37 33 23 7 43 11 45 9 2 -2 -15 -46 -37 -97 -48
-111 -88 -246 -96 -322 -5 -50 -3 -58 17 -72 25 -17 63 -14 100 10 32 21 25
14 165 181 11 14 32 38 46 54 l26 31 7 -42 c10 -67 64 -92 129 -59 84 42 149
142 149 227 0 46 1 47 32 46 17 -1 51 3 75 7 24 4 46 6 49 4 2 -3 -10 -22 -27
-43 -38 -47 -99 -178 -107 -230 -3 -21 -7 -40 -9 -43 -2 -3 3 -20 10 -38 12
-27 19 -32 47 -32 81 0 202 128 266 282 48 115 57 193 30 246 -23 44 -37 26
-37 -47 1 -123 -84 -320 -178 -418 -46 -47 -87 -57 -96 -24 -8 31 50 160 120
264 68 103 72 128 17 106 -16 -6 -51 -11 -79 -11 -91 0 -94 0 -88 21 6 22 -30
51 -65 51 -64 0 -176 -96 -222 -191 -15 -32 -34 -65 -42 -72 -17 -19 -44 -50
-93 -112 -73 -91 -149 -146 -177 -129 -34 21 27 262 103 404 40 75 41 75 140
129 203 110 308 250 246 329 -14 18 -58 15 -97 -9z m89 -17 c22 -41 -53 -145
-163 -226 -74 -55 -146 -99 -152 -94 -4 5 112 165 161 223 40 47 120 115 136
115 5 0 13 -8 18 -18z m90 -356 c5 -4 7 -15 4 -26 -5 -17 -11 -19 -38 -14 -42
7 -53 -10 -21 -31 19 -12 24 -23 21 -45 -12 -95 -76 -197 -133 -214 -41 -11
-51 -2 -56 50 -5 50 25 125 78 197 58 80 106 107 145 83z m-645 -93 c-19 -121
-134 -273 -206 -273 -29 0 -22 21 46 129 104 167 174 230 160 144z m-266 -288
c-6 -14 -13 -23 -15 -21 -5 5 15 46 22 46 3 0 -1 -11 -7 -25z"/>
<path d="M2322 3084 c-29 -14 -52 -29 -52 -32 0 -4 -11 -19 -24 -33 -55 -59
-118 -212 -110 -266 1 -7 2 -26 3 -42 1 -37 38 -80 71 -84 50 -8 110 24 179
92 89 87 178 197 168 207 -2 2 -26 -21 -52 -53 -114 -138 -230 -228 -276 -216
-38 10 -45 74 -18 170 9 35 16 43 43 49 46 10 137 58 168 88 26 27 46 69 42
94 -1 6 -2 16 -3 20 -1 11 -47 32 -70 32 -9 0 -40 -12 -69 -26z m113 -14 c12
-20 -24 -78 -71 -112 -52 -38 -114 -72 -119 -66 -7 7 95 147 122 168 27 21 58
26 68 10z"/>
<path d="M1126 2428 c4 -7 9 -69 10 -139 2 -87 7 -137 18 -160 39 -87 95 -109
151 -59 20 18 21 17 65 -48 237 -351 639 -879 805 -1058 5 -6 42 -46 80 -90
111 -125 292 -300 350 -339 67 -44 106 -53 140 -31 14 9 25 22 25 29 0 8 31
76 69 153 72 143 158 280 265 418 116 149 118 153 112 174 -11 33 -45 34 -73
4 -116 -125 -286 -379 -377 -564 l-73 -146 -64 48 c-89 67 -286 270 -450 465
-19 22 -36 42 -40 45 -35 31 -432 549 -552 721 -131 186 -197 283 -197 291 0
4 6 8 14 8 20 0 66 58 66 83 0 35 -47 95 -92 118 -31 16 -238 88 -256 89 -2 0
0 -5 4 -12z"/>
<path d="M3180 2256 c-134 -47 -218 -104 -345 -230 -56 -56 -119 -123 -141
-150 -21 -27 -51 -63 -65 -80 -58 -68 -207 -275 -243 -338 -22 -37 -43 -65
-48 -62 -13 8 -9 79 8 152 28 118 183 411 281 531 24 30 42 59 40 65 -5 16
-87 20 -87 5 0 -7 -3 -10 -6 -6 -8 7 -85 -105 -137 -198 -147 -267 -202 -528
-121 -573 29 -16 54 -1 95 59 93 137 363 464 469 567 148 143 331 262 405 262
19 0 37 5 40 10 11 18 -79 10 -145 -14z"/>
<path d="M2399 2118 c-168 -54 -256 -146 -223 -233 4 -8 19 -22 35 -30 34 -18
47 -19 31 -3 -17 17 -15 64 4 104 34 72 133 142 249 176 47 13 52 17 26 15
-19 -1 -74 -14 -122 -29z"/>
<path d="M3646 2070 c-40 -12 -81 -53 -133 -132 l-44 -68 -74 0 c-47 0 -75 -4
-75 -11 0 -6 20 -10 53 -9 93 4 90 10 44 -88 -47 -100 -62 -119 -131 -179 -41
-36 -86 -56 -86 -39 0 13 55 154 81 209 35 74 37 112 9 127 -46 24 -103 -15
-193 -134 -21 -26 -37 -45 -37 -42 0 3 25 47 55 98 50 85 53 93 34 96 -40 7
-65 -25 -119 -148 -47 -107 -60 -127 -113 -176 -33 -30 -66 -54 -74 -52 -48 9
-25 92 72 254 31 53 54 98 51 101 -17 17 -59 -12 -92 -65 -91 -141 -129 -264
-95 -306 27 -33 97 -12 144 43 23 27 25 28 30 11 8 -32 22 -24 62 38 35 53
156 213 180 238 17 18 52 34 59 27 16 -16 2 -68 -43 -159 -57 -116 -71 -161
-60 -192 16 -43 85 -15 166 68 l42 44 -14 -41 c-8 -23 -16 -52 -19 -65 -2 -12
-9 -43 -15 -68 -23 -97 -5 -141 54 -135 46 6 151 95 279 240 44 49 48 81 5 34
-141 -153 -243 -237 -273 -226 -36 14 0 173 78 347 67 149 61 143 156 143 44
-1 80 3 80 7 0 5 -32 9 -71 9 -39 0 -74 2 -76 5 -5 5 60 105 109 169 17 20 28
37 26 36 -1 0 -16 -5 -32 -9z"/>
<path d="M2960 1975 c-18 -21 -5 -47 22 -43 26 3 37 36 16 49 -18 12 -24 11
-38 -6z"/>
<path d="M4263 1939 c-81 -40 -175 -158 -209 -262 -17 -54 -69 -118 -116 -143
-15 -8 -29 -14 -33 -14 -15 0 1 47 52 148 47 92 55 115 43 122 -20 12 -30 4
-105 -83 -65 -76 -115 -117 -144 -117 -34 0 23 124 92 200 82 90 140 113 171
69 8 -12 19 -18 26 -14 18 11 -18 44 -63 56 -34 9 -45 7 -93 -16 -93 -45 -194
-183 -194 -264 0 -34 35 -65 67 -59 30 5 80 42 113 83 36 46 37 42 5 -27 -65
-139 12 -178 122 -62 33 35 49 43 40 21 -3 -8 2 -28 10 -45 13 -27 21 -32 52
-32 59 0 101 37 177 158 47 73 66 95 40 45 -7 -16 -29 -66 -47 -112 -30 -78
-37 -86 -88 -119 -219 -143 -331 -267 -331 -367 0 -106 112 -114 203 -16 74
80 155 219 208 359 21 56 28 64 66 80 24 9 43 20 43 25 0 10 -18 9 -42 -4 -11
-6 -21 -9 -23 -7 -3 2 7 40 21 83 33 102 53 183 46 190 -10 10 -22 5 -22 -9 0
-20 -113 -171 -171 -229 -63 -63 -84 -61 -83 8 3 99 124 292 204 325 69 28
113 -16 119 -120 1 -13 2 -13 11 0 12 19 2 88 -17 118 -14 23 -68 52 -95 52
-7 0 -32 -9 -55 -21z m-62 -501 c-5 -13 -28 -59 -50 -103 -118 -232 -208 -328
-262 -279 -41 37 -9 119 86 220 54 57 209 182 227 183 4 1 3 -9 -1 -21z"/>
<path d="M4613 1818 c-69 -18 -177 -167 -202 -279 -12 -53 -7 -124 10 -156 34
-63 139 -41 232 49 58 57 181 208 174 214 -3 3 -33 -28 -68 -68 -87 -101 -146
-155 -199 -182 -87 -45 -118 2 -87 134 11 50 20 60 60 71 52 14 135 60 166 92
12 14 25 43 28 65 5 34 2 42 -18 56 -26 16 -46 17 -96 4z m90 -30 c10 -30 -18
-71 -77 -113 -34 -24 -75 -49 -90 -55 l-27 -10 22 40 c38 67 118 150 144 150
13 0 25 -6 28 -12z"/>
</g>
</svg>
