<svg width="483" height="385" viewBox="0 0 483 385" fill="none" xmlns="http://www.w3.org/2000/svg">
<path d="M91.1638 71.8262C101.413 42.4425 120.946 17.7688 138.338 10.8115C159.523 2.33815 237.487 -12.9165 262.062 71.8262C263.95 78.3382 302.739 1.49015 362.906 10.8115C407.487 17.7195 446.802 65.8941 428.158 149.79C423.628 170.173 414.061 189.181 401.705 207.5M121.178 200C180.17 294.733 267.338 394.512 273.079 379.442C282.905 353.652 299.292 330.114 317.883 307.5" stroke="white" stroke-width="8" stroke-miterlimit="3" stroke-linecap="round" stroke-linejoin="round"/>
<path d="M380 234.727C394.704 227.911 408.439 230.409 414.899 215.883C415.871 209.103 409.224 204.32 401.655 205.044C401.727 196.684 393.229 192.233 387.785 196.873C377.088 208.591 384.584 217.721 380 234.727Z" fill="white"/>
<path d="M112.412 189.639C126.987 196.726 140.766 194.481 146.956 209.125C147.803 215.921 141.069 220.58 133.514 219.717C133.432 228.077 124.854 232.37 119.496 227.63C109.017 215.717 116.681 206.726 112.412 189.639Z" fill="white"/>
<path d="M233.2 297.6C231.867 297.6 230.8 296.9 230 295.5C229.2 294.1 228.633 292.467 228.3 290.6C227.967 288.8 227.8 287.233 227.8 285.9C227.8 282.433 228.333 278.6 229.4 274.4C230.4 270.2 231.7 265.933 233.3 261.6C234.967 257.267 236.833 252.967 238.9 248.7C240.967 244.5 243.033 240.6 245.1 237C247.167 233.4 249.1 230.267 250.9 227.6C252.767 224.867 254.3 222.833 255.5 221.5C255.967 220.967 256.467 220.533 257 220.2L258.6 219.2C256.533 219.267 254.233 219.6 251.7 220.2C246.433 221.4 241.233 223.5 236.1 226.5C233.567 227.967 231.333 229.633 229.4 231.5C227.467 233.433 225.9 235.533 224.7 237.8C223.5 240 222.9 242.367 222.9 244.9C222.9 245.567 223 246.333 223.2 247.2C223.4 248.067 224.067 248.7 225.2 249.1C225.533 249.3 225.633 249.467 225.5 249.6C225.367 249.733 225.2 249.8 225 249.8C224.267 249.8 223.267 249.533 222 249C220.733 248.467 219.567 247.633 218.5 246.5C217.5 245.367 217 243.933 217 242.2C217 239.267 217.867 236.633 219.6 234.3C221.267 232.033 223.367 230.067 225.9 228.4C228.5 226.667 231.367 225.2 234.5 224C237.567 222.8 240.5 221.8 243.3 221C245.567 220.4 247.8 219.9 250 219.5C252.2 219.1 253.733 218.867 254.6 218.8C256.067 218.6 257.533 218.433 259 218.3C260.533 218.1 262.167 218.067 263.9 218.2C266.033 218.333 267.1 218.933 267.1 220C267.1 220.867 266.333 222 264.8 223.4C263.667 224.4 262.333 225.967 260.8 228.1C259.267 230.233 257.6 232.7 255.8 235.5C254.067 238.3 252.3 241.267 250.5 244.4C248.7 247.533 247 250.6 245.4 253.6C243.8 256.6 242.333 259.367 241 261.9C239.733 264.433 238.767 266.5 238.1 268.1C237.1 270.5 236.2 273.167 235.4 276.1C234.6 278.967 233.933 281.667 233.4 284.2C232.933 286.733 232.7 288.733 232.7 290.2C232.7 293.2 233.167 294.7 234.1 294.7C234.7 294.7 235.333 294 236 292.6C237.6 289.6 239.733 286.1 242.4 282.1C245.133 278.033 248.2 273.733 251.6 269.2C254.933 264.667 258.5 260.033 262.3 255.3C266.1 250.567 269.867 246 273.6 241.6C282.067 231.533 290.4 223.7 298.6 218.1C306.867 212.5 315.133 208.7 323.4 206.7C324.533 206.433 325.567 206.267 326.5 206.2C327.5 206.067 328.4 206 329.2 206C330.533 206 331.6 206.133 332.4 206.4C333.2 206.6 333.6 206.833 333.6 207.1C333.6 207.567 332.5 207.8 330.3 207.8C327.967 207.8 325.333 208.333 322.4 209.4C319.467 210.533 316.4 212.067 313.2 214C310 215.867 306.767 218.067 303.5 220.6C300.167 223.133 296.933 225.8 293.8 228.6C290.6 231.4 287.567 234.267 284.7 237.2C281.833 240.067 279.267 242.867 277 245.6C273.067 250.333 269.133 255.067 265.2 259.8C261.333 264.533 257.733 269 254.4 273.2C251 277.467 247.967 281.333 245.3 284.8C242.7 288.267 240.733 291.067 239.4 293.2C238.533 294.6 237.633 295.667 236.7 296.4C235.767 297.2 234.6 297.6 233.2 297.6ZM297.752 241.3C296.018 241.3 295.152 240.467 295.152 238.8C295.152 237.8 295.518 236.967 296.252 236.3C296.985 235.567 297.785 235.2 298.652 235.2C299.518 235.2 300.185 235.5 300.652 236.1C301.185 236.7 301.385 237.433 301.252 238.3C301.052 239.167 300.618 239.9 299.952 240.5C299.352 241.033 298.618 241.3 297.752 241.3ZM281.552 285C278.085 285 276.352 282.833 276.352 278.5C276.352 277.567 276.452 276.5 276.652 275.3C276.918 273.9 277.418 272.233 278.152 270.3C278.952 268.3 279.818 266.333 280.752 264.4C281.752 262.4 282.652 260.7 283.452 259.3C284.118 258.233 284.885 256.967 285.752 255.5C286.618 254.033 287.452 252.667 288.252 251.4C289.052 250.133 289.552 249.3 289.752 248.9C290.152 248.033 290.952 247.367 292.152 246.9C293.352 246.367 294.418 246.1 295.352 246.1C296.418 246.1 296.952 246.4 296.952 247C296.952 247.4 296.818 247.767 296.552 248.1C295.285 250.167 293.785 252.567 292.052 255.3C290.385 258.033 288.752 260.833 287.152 263.7C285.552 266.567 284.218 269.3 283.152 271.9C282.085 274.5 281.552 276.733 281.552 278.6C281.552 279.6 281.718 280.4 282.052 281C282.452 281.6 283.152 281.9 284.152 281.9C285.218 281.9 286.418 281.4 287.752 280.4C289.152 279.333 290.485 278.167 291.752 276.9C293.085 275.567 294.085 274.533 294.752 273.8L296.752 271.7C297.085 271.367 297.385 271.033 297.652 270.7C297.918 270.3 298.185 269.933 298.452 269.6C298.652 269.4 298.818 269.3 298.952 269.3C299.352 269.3 299.552 269.6 299.552 270.2C299.552 270.533 299.418 270.833 299.152 271.1C298.418 272.033 297.685 272.933 296.952 273.8C296.218 274.667 295.452 275.533 294.652 276.4C292.985 278.4 291.052 280.333 288.852 282.2C286.652 284.067 284.218 285 281.552 285ZM317.764 285.1C316.631 285.1 315.831 284.667 315.364 283.8C314.897 282.933 314.664 281.9 314.664 280.7C314.664 278.567 315.231 276.133 316.364 273.4C317.564 270.667 318.931 267.867 320.464 265C321.997 262.133 323.331 259.433 324.464 256.9C325.664 254.3 326.264 252.1 326.264 250.3C326.264 249.433 326.097 248.733 325.764 248.2C325.497 247.667 325.064 247.4 324.464 247.4C323.664 247.4 322.697 247.833 321.564 248.7C320.297 249.567 318.864 251 317.264 253L313.564 257.6C311.631 260 309.664 262.567 307.664 265.3C305.731 267.967 303.964 270.467 302.364 272.8C300.831 275.133 299.697 277 298.964 278.4C298.364 279.467 297.664 280 296.864 280C296.397 280 295.964 279.767 295.564 279.3C295.164 278.833 294.964 278.233 294.964 277.5C294.964 277.033 295.064 276.5 295.264 275.9C297.597 271.433 299.797 266.667 301.864 261.6C303.997 256.533 306.097 251.933 308.164 247.8C308.764 246.667 309.764 245.7 311.164 244.9C312.564 244.033 313.797 243.6 314.864 243.6C315.864 243.6 316.364 243.967 316.364 244.7C316.364 245.1 316.064 245.867 315.464 247C314.731 248.133 313.831 249.6 312.764 251.4C311.697 253.2 310.597 255.1 309.464 257.1C308.331 259.1 307.264 261 306.264 262.8C305.331 264.6 304.631 266.067 304.164 267.2C304.897 266.2 305.897 264.7 307.164 262.7C308.497 260.7 310.297 258.367 312.564 255.7L315.764 251.9C317.897 249.367 319.864 247.633 321.664 246.7C323.464 245.767 325.131 245.3 326.664 245.3C327.864 245.3 328.897 245.6 329.764 246.2C330.631 246.8 331.064 247.833 331.064 249.3C331.064 251.033 330.697 252.767 329.964 254.5C329.231 256.167 328.631 257.5 328.164 258.5C327.697 259.567 327.031 261.033 326.164 262.9C325.297 264.767 324.431 266.767 323.564 268.9C322.697 271.033 321.964 273.033 321.364 274.9C320.764 276.767 320.464 278.2 320.464 279.2C320.464 280.067 320.731 280.5 321.264 280.5C321.931 280.5 322.797 280.167 323.864 279.5C324.997 278.767 326.097 277.967 327.164 277.1C328.297 276.233 329.164 275.533 329.764 275C331.964 273 334.197 270.667 336.464 268C336.797 267.6 337.064 267.4 337.264 267.4C337.464 267.4 337.564 267.6 337.564 268C337.564 268.2 337.464 268.467 337.264 268.8C337.131 269.133 336.964 269.5 336.764 269.9C336.364 270.567 335.731 271.467 334.864 272.6C333.997 273.667 333.097 274.7 332.164 275.7C330.764 277.233 329.197 278.7 327.464 280.1C325.797 281.5 323.931 282.767 321.864 283.9C321.331 284.167 320.831 284.4 320.364 284.6C319.964 284.733 319.631 284.833 319.364 284.9C319.097 284.967 318.831 285 318.564 285C318.297 285.067 318.031 285.1 317.764 285.1ZM334.78 302.6C333.514 302.6 332.414 302.067 331.48 301C330.547 299.933 330.08 298.267 330.08 296C330.08 294.733 330.214 293.433 330.48 292.1C330.614 291.433 330.88 290.133 331.28 288.2C331.68 286.267 332.147 284.3 332.68 282.3C333.28 279.833 334.114 277.033 335.18 273.9C336.247 270.7 337.547 267.333 339.08 263.8C340.214 261 341.38 258.367 342.58 255.9C343.78 253.433 344.98 251.033 346.18 248.7H332.38C331.647 248.7 331.28 248.533 331.28 248.2C331.28 247.467 332.014 247.1 333.48 247.1H347.08C348.747 244.1 350.48 241.267 352.28 238.6C354.08 235.933 356.08 233.433 358.28 231.1C359.414 229.767 360.447 228.833 361.38 228.3C362.38 227.767 363.38 227.4 364.38 227.2C365.447 226.933 366.614 226.667 367.88 226.4C364.814 230.133 362.114 233.667 359.78 237C357.514 240.267 355.38 243.633 353.38 247.1H368.18C368.98 247.1 369.38 247.3 369.38 247.7C369.38 247.9 369.18 248.133 368.78 248.4C368.447 248.6 367.914 248.7 367.18 248.7H352.48C350.88 251.5 349.347 254.467 347.88 257.6C346.414 260.667 344.847 264.033 343.18 267.7C341.78 270.767 340.514 274.067 339.38 277.6C338.314 281.067 337.447 284.267 336.78 287.2C336.114 290.133 335.78 292.233 335.78 293.5C335.78 296.567 336.614 298.1 338.28 298.1C339.08 298.1 340.08 297.7 341.28 296.9C343.88 295.3 346.214 293.633 348.28 291.9C350.347 290.233 352.314 288.467 354.18 286.6C355.18 285.667 356.347 284.467 357.68 283C359.08 281.533 360.48 280.033 361.88 278.5C363.28 276.967 364.514 275.6 365.58 274.4L367.28 272.5C367.48 272.3 367.647 272.2 367.78 272.2C368.18 272.2 368.38 272.467 368.38 273C368.38 273.333 368.247 273.667 367.98 274C367.647 274.533 367.28 275.033 366.88 275.5C366.414 275.967 365.98 276.467 365.58 277C362.714 280.533 359.547 284.1 356.08 287.7C352.614 291.3 349.047 294.6 345.38 297.6C343.847 298.8 342.247 299.933 340.58 301C338.914 302.067 336.98 302.6 334.78 302.6ZM389.163 285.4C386.496 285.4 385.163 283.667 385.163 280.2C385.163 279 385.363 277.667 385.763 276.2C385.896 275.733 386.196 274.967 386.663 273.9C387.129 272.833 387.663 271.667 388.263 270.4C388.863 269.067 389.429 267.833 389.963 266.7C390.496 265.5 390.863 264.567 391.063 263.9C389.663 266.033 388.096 268.167 386.363 270.3C384.696 272.367 382.896 274.1 380.963 275.5C379.029 276.9 376.963 277.6 374.763 277.6C372.696 277.533 371.229 276.967 370.363 275.9C369.496 274.833 369.063 273.533 369.063 272C369.063 270.2 369.463 268.233 370.263 266.1C371.063 263.967 371.963 262.067 372.963 260.4C374.696 257.667 376.796 255 379.263 252.4C381.729 249.8 384.363 247.667 387.163 246C389.963 244.267 392.629 243.4 395.163 243.4C396.496 243.4 397.796 243.633 399.063 244.1C400.329 244.5 401.596 245.2 402.863 246.2C403.863 247 404.363 247.867 404.363 248.8C404.363 249.733 403.963 250.2 403.163 250.2C402.563 250.2 402.129 249.8 401.863 249C400.996 246.733 399.596 245.6 397.663 245.6C395.929 245.6 393.996 246.367 391.863 247.9C389.729 249.433 387.629 251.267 385.563 253.4C383.229 255.733 381.163 258.3 379.363 261.1C377.563 263.9 376.196 266.433 375.263 268.7C374.396 270.767 373.963 272.3 373.963 273.3C373.963 274.567 374.463 275.2 375.463 275.2C376.596 275.2 378.263 274.333 380.463 272.6C381.929 271.467 383.529 270 385.263 268.2C386.996 266.333 388.629 264.5 390.163 262.7C391.696 260.9 392.896 259.5 393.763 258.5C394.496 257.367 395.096 256.467 395.563 255.8C395.829 255.4 396.263 255.1 396.863 254.9C397.463 254.7 398.096 254.6 398.763 254.6C399.563 254.6 400.229 254.767 400.763 255.1C401.296 255.367 401.429 255.8 401.163 256.4C400.896 257 400.296 258.167 399.363 259.9C398.496 261.567 397.496 263.467 396.363 265.6C395.296 267.733 394.263 269.767 393.263 271.7C392.329 273.633 391.629 275.133 391.163 276.2C390.229 278.267 389.763 279.8 389.763 280.8C389.763 281.667 390.096 282.1 390.763 282.1C391.229 282.1 391.929 281.833 392.863 281.3C394.329 280.567 395.796 279.533 397.263 278.2C398.729 276.8 400.129 275.333 401.463 273.8C402.196 273.067 402.863 272.367 403.463 271.7C404.063 271.033 404.629 270.333 405.163 269.6C405.363 269.4 405.529 269.3 405.663 269.3C406.063 269.3 406.263 269.6 406.263 270.2C406.263 270.533 406.129 270.833 405.863 271.1C405.129 272.033 404.396 272.933 403.663 273.8C402.929 274.667 402.163 275.533 401.363 276.4C400.629 277.267 399.863 278.133 399.063 279C398.329 279.8 397.563 280.567 396.763 281.3C395.296 282.7 393.896 283.733 392.563 284.4C391.296 285.067 390.163 285.4 389.163 285.4ZM392.402 332.1C390.336 332.1 388.536 331.433 387.002 330.1C385.469 328.833 384.702 326.867 384.702 324.2C384.702 321 385.802 317.533 388.002 313.8C390.136 310.067 393.236 306.3 397.302 302.5C399.569 300.367 402.202 298.133 405.202 295.8C408.269 293.467 411.369 291.267 414.502 289.2C417.702 287.133 420.536 285.4 423.002 284C424.936 279.733 426.802 275.467 428.602 271.2C430.402 266.867 431.969 262.733 433.302 258.8C432.102 261 430.636 263.533 428.902 266.4C427.236 269.267 425.402 272.067 423.402 274.8C421.402 277.533 419.269 279.8 417.002 281.6C414.802 283.333 412.569 284.2 410.302 284.2C407.836 284.2 406.102 283.433 405.102 281.9C404.102 280.367 403.602 278.467 403.602 276.2C403.602 273.8 404.002 271.233 404.802 268.5C405.602 265.767 406.469 263.367 407.402 261.3C408.669 258.5 410.269 255.767 412.202 253.1C414.136 250.367 416.236 247.9 418.502 245.7C420.769 243.433 423.069 241.633 425.402 240.3C427.736 238.967 430.002 238.3 432.202 238.3C433.936 238.3 435.669 238.7 437.402 239.5C439.136 240.3 440.602 241.733 441.802 243.8C443.002 245.867 443.602 248.767 443.602 252.5C443.602 253.633 443.469 254.533 443.202 255.2C442.936 255.8 442.669 256.1 442.402 256.1C441.936 256.1 441.702 255.2 441.702 253.4C441.702 251.733 441.436 250.033 440.902 248.3C440.369 246.567 439.569 245.133 438.502 244C437.436 242.8 436.102 242.167 434.502 242.1C432.636 241.967 430.736 242.433 428.802 243.5C426.936 244.5 425.169 245.867 423.502 247.6C421.836 249.333 420.336 251.167 419.002 253.1C417.536 255.233 416.202 257.4 415.002 259.6C413.802 261.8 412.769 263.9 411.902 265.9C411.036 267.9 410.402 269.6 410.002 271C409.269 273.333 408.902 275.267 408.902 276.8C408.902 279.6 409.802 281 411.602 281C413.069 281 414.869 279.933 417.002 277.8C418.202 276.533 419.536 275.033 421.002 273.3C422.469 271.567 423.902 269.8 425.302 268C426.769 266.133 428.069 264.433 429.202 262.9C430.402 261.3 431.336 260.067 432.002 259.2C432.202 258.8 432.569 258.267 433.102 257.6C433.569 257 434.069 255.867 434.602 254.2C435.002 252.8 435.569 252.1 436.302 252.1C437.036 252.1 437.402 252.733 437.402 254C437.269 255.133 436.936 256.733 436.402 258.8C435.869 260.8 435.202 263.1 434.402 265.7C433.602 268.233 432.769 270.8 431.902 273.4C431.036 276 430.202 278.4 429.402 280.6C430.669 279.933 431.802 279.4 432.802 279L435.302 278C435.436 278 435.502 278 435.502 278C435.569 277.933 435.636 277.9 435.702 277.9C436.436 277.9 436.802 278.233 436.802 278.9C436.802 279.3 436.569 279.533 436.102 279.6C435.302 279.933 434.236 280.4 432.902 281C431.569 281.533 430.069 282.267 428.402 283.2C426.669 288 424.769 292.7 422.702 297.3C420.636 301.9 418.602 305.9 416.602 309.3C413.002 315.433 409.702 320.167 406.702 323.5C403.702 326.833 400.969 329.167 398.502 330.5C396.569 331.567 394.536 332.1 392.402 332.1ZM391.802 329.8C393.202 329.8 394.569 329.333 395.902 328.4C397.436 327.333 399.102 325.767 400.902 323.7C402.636 321.633 404.369 319.267 406.102 316.6C407.836 314 409.469 311.367 411.002 308.7C412.536 306.033 413.836 303.6 414.902 301.4L421.602 287.1C419.202 288.633 416.702 290.3 414.102 292.1C411.502 293.9 408.936 295.833 406.402 297.9C404.202 299.767 401.969 301.8 399.702 304C397.369 306.267 395.236 308.567 393.302 310.9C391.369 313.3 389.836 315.633 388.702 317.9C387.502 320.167 386.902 322.233 386.902 324.1C386.902 325.9 387.402 327.3 388.402 328.3C389.336 329.3 390.469 329.8 391.802 329.8ZM448.444 299.4C445.844 299.4 443.844 298.333 442.444 296.2C441.044 294.133 440.344 291.167 440.344 287.3C440.344 286.633 440.377 285.967 440.444 285.3C440.444 284.633 440.477 283.933 440.544 283.2C440.944 279.933 441.944 276.367 443.544 272.5C445.21 268.633 447.744 264.5 451.144 260.1C453.41 257.167 455.877 254.967 458.544 253.5C461.21 252.033 463.777 251.3 466.244 251.3C467.977 251.3 469.51 251.633 470.844 252.3C472.444 253.167 473.244 254.733 473.244 257C473.244 258.667 472.644 260.533 471.444 262.6C470.244 264.6 468.21 266.533 465.344 268.4C461.544 270.8 458.377 272.4 455.844 273.2C453.31 274 451.277 274.433 449.744 274.5C449.21 275.233 448.677 276.4 448.144 278C447.61 279.533 447.144 281.167 446.744 282.9C446.41 284.567 446.177 286.067 446.044 287.4C446.044 287.667 446.01 287.933 445.944 288.2C445.944 288.533 445.944 288.867 445.944 289.2C445.944 291.2 446.277 292.9 446.944 294.3C447.677 295.767 448.944 296.5 450.744 296.5C452.344 296.5 454.144 295.9 456.144 294.7C458.144 293.567 460.11 292.167 462.044 290.5C464.044 288.9 465.777 287.333 467.244 285.8C468.777 284.333 469.844 283.233 470.444 282.5L477.844 273.9L481.844 269.3C482.044 269.1 482.21 269 482.344 269C482.744 269 482.944 269.267 482.944 269.8C482.944 270 482.777 270.333 482.444 270.8C481.777 271.733 481.01 272.7 480.144 273.7C479.344 274.7 478.577 275.633 477.844 276.5C476.91 277.567 475.744 278.933 474.344 280.6C473.01 282.267 471.577 284 470.044 285.8C468.577 287.6 467.144 289.167 465.744 290.5C463.21 292.967 460.477 295.067 457.544 296.8C454.677 298.533 451.644 299.4 448.444 299.4ZM450.644 272.9C451.577 272.833 452.744 272.467 454.144 271.8C455.544 271.133 457.01 270.333 458.544 269.4C460.077 268.467 461.477 267.533 462.744 266.6C464.077 265.6 465.144 264.767 465.944 264.1C467.477 262.9 468.61 261.567 469.344 260.1C470.077 258.633 470.444 257.367 470.444 256.3C470.444 255.567 470.244 254.933 469.844 254.4C469.51 253.867 468.977 253.6 468.244 253.6C466.844 253.6 465.31 254.3 463.644 255.7C462.044 257.033 460.41 258.767 458.744 260.9C457.144 262.967 455.61 265.1 454.144 267.3C452.744 269.433 451.577 271.3 450.644 272.9Z" fill="white"/>
<path d="M68.9 184.8C67.2333 184.8 65.6667 184.367 64.2 183.5C62.9333 182.633 62.0333 181.4 61.5 179.8C61.0333 178.267 60.8 176.533 60.8 174.6C60.8 171.667 61.2 168.6 62 165.4C62.8 162.2 63.6 159.567 64.4 157.5C65.2667 155.033 66.4 152 67.8 148.4C69.2 144.733 70.6667 140.867 72.2 136.8C73.8 132.667 75.3 128.667 76.7 124.8C78.1667 120.867 79.4333 117.433 80.5 114.5C81.3 112.1 82.1667 109.3 83.1 106.1C84.0333 102.833 84.7 99.9333 85.1 97.4C83.9 100.8 82.3333 104.433 80.4 108.3C78.4667 112.167 76.3 116.033 73.9 119.9C71.5 123.833 68.9667 127.667 66.3 131.4C63.7 135.067 61.1 138.433 58.5 141.5C56.7 143.633 54.6 145.9 52.2 148.3C49.8 150.633 47.2333 152.8 44.5 154.8C41.8333 156.8 39.2 158.367 36.6 159.5C35.5333 159.967 34.5 160.3 33.5 160.5C32.5 160.767 31.6 160.9 30.8 160.9C28.8 160.9 27.2667 160.267 26.2 159C25.2 157.8 24.7 156.2 24.7 154.2C24.7 152.2 25.2667 149.9 26.4 147.3C27 146.1 27.9667 144.267 29.3 141.8C30.6333 139.333 32.1667 136.567 33.9 133.5L44.4 114.3C47.2667 109.1 49.8333 104.267 52.1 99.8C54.4333 95.2667 55.8333 91.6 56.3 88.8C55.5 90.1333 54.5667 91.7667 53.5 93.7C52.4333 95.5667 51.3333 97.4667 50.2 99.4C49.0667 101.333 48.0667 103 47.2 104.4C45.6 107 43.9667 109.5 42.3 111.9C40.6333 114.233 38.9 116.333 37.1 118.2C35.1667 120.267 32.9333 122.5 30.4 124.9C27.8667 127.3 25.1333 129.333 22.2 131C19.3333 132.667 16.3667 133.5 13.3 133.5C10.5 133.633 8.5 132.933 7.3 131.4C6.1 129.8 5.5 128.133 5.5 126.4V125.6C5.5 124.733 5.66667 124.233 6 124.1C6.06667 124.1 6.16667 124.1 6.3 124.1C6.56667 124.1 6.7 124.367 6.7 124.9C6.7 125.633 6.8 126.467 7 127.4C7.26667 128.267 7.93333 128.7 9 128.7C9.86667 128.7 11.3667 128.433 13.5 127.9C15.6333 127.3 18 126.267 20.6 124.8C23.8 123 27.5667 120.2 31.9 116.4C36.2333 112.6 41.0333 107.267 46.3 100.4C47.5667 98.6667 48.7 96.8333 49.7 94.9C50.7667 92.9 51.7667 91.1 52.7 89.5C53.6333 87.9 54.5667 86.8 55.5 86.2C56.6333 85.4667 57.4 85.3667 57.8 85.9C58.6667 86.3667 59.2667 87.1333 59.6 88.2C59.9333 89.2 60.1 90.3667 60.1 91.7C60.1 93.7 59.7333 96 59 98.6C58.3333 101.2 57.4 103.867 56.2 106.6C55.0667 109.333 53.8 111.9 52.4 114.3C51.1333 116.7 49.7 119.333 48.1 122.2C46.5 125 44.9 127.767 43.3 130.5C41.7667 133.233 40.3667 135.7 39.1 137.9C37.9 140.1 37.0333 141.767 36.5 142.9C35.8333 144.233 35.1333 145.733 34.4 147.4C33.6667 149.067 33.0333 150.667 32.5 152.2C32.0333 153.667 31.8 154.9 31.8 155.9C31.8 157.367 32.4333 158.1 33.7 158.1C34.3 158.1 35.2333 157.833 36.5 157.3C38.2333 156.5 40.1 155.3 42.1 153.7C44.1 152.033 46.1 150.2 48.1 148.2C50.1 146.133 51.9667 144.1 53.7 142.1C55.4333 140.033 56.8667 138.267 58 136.8C60.7333 133.4 63.4667 129.8 66.2 126C69 122.133 71.6333 118.267 74.1 114.4C76.5 110.533 78.6333 106.733 80.5 103C82.4333 99.2 83.9333 95.6667 85 92.4C85.7333 92.1333 86.5 91.9 87.3 91.7C88.1667 91.5 89 91.4 89.8 91.4C90.9333 91.4 91.8333 91.6333 92.5 92.1C94.0333 93.1667 94.8 94.7333 94.8 96.8C94.8 97.8667 94.4 99.6667 93.6 102.2C92.8667 104.333 91.9667 106.733 90.9 109.4C89.8333 112 88.6667 114.767 87.4 117.7L83.6 126.5C82.8667 128.033 82.1 129.733 81.3 131.6C80.5 133.4 79.7333 135.133 79 136.8C78.3333 138.4 77.8 139.733 77.4 140.8C76.8 142.4 76.0333 144.333 75.1 146.6C74.2333 148.8 73.3333 151.133 72.4 153.6C71.5333 156 70.7333 158.267 70 160.4C69.2667 162.6 68.7 164.433 68.3 165.9C68.1 166.833 67.7667 168.1 67.3 169.7C66.9 171.3 66.5 172.967 66.1 174.7C65.7667 176.5 65.6 178.067 65.6 179.4C65.6 181.467 66.2333 182.5 67.5 182.5C68.9667 182.5 70.4 181.867 71.8 180.6C73.2667 179.4 74.7333 177.967 76.2 176.3C77.6667 174.7 79.1667 173.367 80.7 172.3C80.9667 172.033 81.1333 171.933 81.2 172C81.3333 172.133 81.2667 172.333 81 172.6C80.6 173 80.1 173.7 79.5 174.7C78.9 175.7 78.3333 176.7 77.8 177.7C77.2667 178.767 76.8667 179.567 76.6 180.1C75.9333 181.567 74.8667 182.7 73.4 183.5C72 184.367 70.5 184.8 68.9 184.8ZM72.8164 199.4C72.3497 199.4 71.8497 198.733 71.3164 197.4C70.7164 196.067 70.4164 194.4 70.4164 192.4C70.4164 191.8 70.4497 191.167 70.5164 190.5C70.5831 189.833 70.6831 189.167 70.8164 188.5C71.5497 185.367 72.6497 181.8 74.1164 177.8C75.5164 173.8 77.1497 169.6 79.0164 165.2C80.8831 160.8 82.9164 156.3 85.1164 151.7C87.2497 147.167 89.3831 142.767 91.5164 138.5C93.6497 134.3 95.6831 130.367 97.6164 126.7C99.6164 123.033 101.383 119.9 102.916 117.3C105.25 113.367 107.383 110.433 109.316 108.5C111.25 106.5 113.116 105.1 114.916 104.3C116.783 103.433 118.75 102.767 120.816 102.3C118.883 104.233 116.816 106.667 114.616 109.6C110.15 115.667 105.616 122.7 101.016 130.7C98.7497 134.7 96.5831 138.667 94.5164 142.6C92.3831 146.533 90.3831 150.367 88.5164 154.1C86.7164 157.833 85.1497 161.233 83.8164 164.3L83.1164 166.2L82.2164 168.8C83.5497 165.867 85.0831 162.733 86.8164 159.4C88.4831 156.067 90.2497 152.767 92.1164 149.5C93.9831 146.233 95.8164 143.2 97.6164 140.4C99.4164 137.533 101.016 135.133 102.416 133.2C104.55 130.4 106.683 128.1 108.816 126.3C111.016 124.5 112.883 123.6 114.416 123.6C116.283 123.6 117.583 124.167 118.316 125.3C119.05 126.367 119.416 127.7 119.416 129.3C119.416 131.7 118.916 134.267 117.916 137C116.983 139.733 115.65 142.433 113.916 145.1C112.25 147.767 110.283 150.2 108.016 152.4C105.75 154.6 103.316 156.367 100.716 157.7C98.1831 159.033 95.5497 159.7 92.8164 159.7C91.4164 159.7 90.4497 159.133 89.9164 158C87.9164 161.733 85.8831 165.8 83.8164 170.2C81.7497 174.667 79.4831 179.7 77.0164 185.3C76.3497 187.767 75.7164 190.133 75.1164 192.4C74.5164 194.667 74.0164 196.667 73.6164 198.4C73.4164 199.067 73.1497 199.4 72.8164 199.4ZM92.8164 157.9C95.0164 157.9 97.2497 157 99.5164 155.2C101.85 153.333 104.016 151 106.016 148.2C108.083 145.4 109.716 142.533 110.916 139.6C111.316 138.667 111.716 137.533 112.116 136.2C112.583 134.8 112.983 133.4 113.316 132C113.65 130.6 113.816 129.433 113.816 128.5C113.816 127.233 113.483 126.6 112.816 126.6C111.683 126.6 110.383 127.333 108.916 128.8C107.516 130.2 106.05 131.967 104.516 134.1C102.116 137.5 99.7831 141 97.5164 144.6C95.2497 148.2 92.9164 152.267 90.5164 156.8C90.9164 157.533 91.6831 157.9 92.8164 157.9ZM118.788 174.6C117.521 174.6 116.421 174.067 115.487 173C114.554 171.933 114.087 170.267 114.087 168C114.087 166.733 114.221 165.433 114.487 164.1C115.621 157.833 117.387 151.233 119.788 144.3C122.188 137.367 125.188 130.5 128.788 123.7C124.588 125.1 121.121 125.8 118.388 125.8C117.121 125.8 116.187 125.7 115.587 125.5C114.987 125.233 114.687 124.967 114.687 124.7C114.687 124.3 115.321 124.133 116.587 124.2C116.854 124.267 117.087 124.3 117.288 124.3C117.554 124.3 117.821 124.3 118.088 124.3C119.688 124.3 121.488 124.067 123.488 123.6C125.488 123.067 127.621 122.367 129.888 121.5C133.488 114.9 137.454 108.667 141.788 102.8C146.188 96.8667 150.888 91.6 155.888 87C157.621 85.4667 159.388 84.2667 161.188 83.4C163.054 82.4667 164.754 82 166.288 82C167.621 82 168.754 82.3667 169.688 83.1C170.621 83.8333 171.254 85.0667 171.588 86.8C171.654 87.0667 171.688 87.3667 171.688 87.7C171.754 88.0333 171.788 88.3667 171.788 88.7C171.788 89.9667 171.521 91.3333 170.988 92.8C169.321 97 165.954 101.233 160.888 105.5C158.421 107.633 155.788 109.633 152.988 111.5C150.188 113.367 147.254 115.133 144.188 116.8C141.121 118.467 138.154 119.9 135.288 121.1C133.088 124.9 131.054 128.767 129.188 132.7C127.321 136.633 125.721 140.5 124.388 144.3C122.988 148.167 121.888 151.9 121.088 155.5C120.288 159.033 119.854 162.367 119.788 165.5C119.788 168.433 120.521 169.9 121.988 169.9C122.854 169.9 123.954 169.567 125.288 168.9C127.354 167.7 129.121 166.467 130.588 165.2C132.054 163.933 133.554 162.433 135.088 160.7C135.821 159.833 136.854 158.567 138.188 156.9C139.588 155.167 141.088 153.333 142.688 151.4C144.288 149.4 145.821 147.567 147.288 145.9C148.621 144.3 149.954 142.767 151.288 141.3C151.488 141.1 151.654 141 151.788 141C152.188 141 152.388 141.267 152.388 141.8C152.388 142.133 152.254 142.467 151.988 142.8C151.254 143.733 150.454 144.7 149.588 145.7C148.788 146.7 148.021 147.633 147.288 148.5C146.888 148.9 146.154 149.767 145.088 151.1C144.021 152.367 142.754 153.9 141.288 155.7C139.821 157.433 138.321 159.2 136.788 161C135.254 162.867 133.821 164.567 132.488 166.1C131.221 167.633 130.188 168.8 129.388 169.6C127.921 171 126.321 172.167 124.588 173.1C122.921 174.1 120.988 174.6 118.788 174.6ZM136.888 118.4C140.154 116.8 143.488 114.9 146.888 112.7C150.288 110.433 153.521 108.033 156.588 105.5C159.654 102.9 162.288 100.267 164.488 97.6C166.688 94.9333 168.221 92.3333 169.088 89.8C169.354 89 169.488 88.2 169.488 87.4C169.488 85.3333 168.654 84.3 166.988 84.3C165.921 84.3 164.821 84.7667 163.688 85.7C159.221 89.2333 154.654 93.8667 149.988 99.6C145.321 105.333 140.954 111.6 136.888 118.4ZM157.966 157.4C155.699 157.4 153.799 156.433 152.266 154.5C150.799 152.567 150.066 150.1 150.066 147.1C150.066 144.7 150.466 142.333 151.266 140C152.066 137.733 153.132 135.567 154.466 133.5C155.866 131.433 157.432 129.5 159.166 127.7C161.432 125.367 163.999 123.333 166.866 121.6C169.799 119.867 172.466 119 174.866 119C176.732 119 178.166 119.467 179.166 120.4C180.232 121.267 180.766 122.333 180.766 123.6C180.766 124.4 180.499 125.267 179.966 126.2C181.699 126.4 183.399 126.5 185.066 126.5C186.332 126.5 187.599 126.433 188.866 126.3C190.132 126.167 191.399 125.967 192.666 125.7H193.066C193.599 125.7 193.866 125.833 193.866 126.1C193.866 126.367 193.566 126.6 192.966 126.8C192.299 127.067 191.199 127.333 189.666 127.6C188.132 127.867 186.532 128.1 184.866 128.3C183.199 128.433 181.699 128.5 180.366 128.5C179.899 128.5 179.499 128.5 179.166 128.5C178.832 128.5 178.532 128.467 178.266 128.4L177.266 128.9C178.066 130.033 178.466 131.6 178.466 133.6C178.466 136.267 177.799 139 176.466 141.8C175.199 144.533 173.499 147.1 171.366 149.5C169.299 151.833 167.066 153.733 164.666 155.2C162.332 156.667 160.099 157.4 157.966 157.4ZM158.866 155C160.666 155 162.432 154.367 164.166 153.1C165.899 151.767 167.466 150.067 168.866 148C170.332 145.867 171.532 143.6 172.466 141.2C173.466 138.733 174.132 136.367 174.466 134.1C174.532 133.7 174.566 133.333 174.566 133C174.566 132.6 174.566 132.233 174.566 131.9C174.566 131.3 174.532 130.767 174.466 130.3C174.399 129.767 174.266 129.367 174.066 129.1C173.932 129.1 173.832 129.067 173.766 129C172.966 128.867 172.366 128.667 171.966 128.4C171.632 128.133 171.232 127.833 170.766 127.5C170.499 127.167 170.366 126.767 170.366 126.3C170.366 125.833 170.532 125.467 170.866 125.2C171.266 124.933 171.699 124.867 172.166 125C173.832 125.333 175.632 125.633 177.566 125.9C178.232 124.767 178.566 123.733 178.566 122.8C178.566 121.2 177.366 120.4 174.966 120.4C173.499 120.4 171.966 120.967 170.366 122.1C168.832 123.167 167.299 124.6 165.766 126.4C164.232 128.133 162.766 130.067 161.366 132.2C159.966 134.267 158.766 136.3 157.766 138.3C157.099 139.633 156.499 141.267 155.966 143.2C155.499 145.133 155.266 147 155.266 148.8C155.266 150.467 155.532 151.933 156.066 153.2C156.666 154.4 157.599 155 158.866 155ZM185.066 166C183.2 166 181.833 165.4 180.966 164.2C180.1 163.067 179.666 161.533 179.666 159.6C179.666 157.333 180.133 154.7 181.066 151.7C182 148.7 183.233 145.6 184.766 142.4C186.3 139.2 188 136.167 189.866 133.3C191.8 130.433 193.7 128.033 195.566 126.1C196.166 125.5 196.866 125.067 197.666 124.8C198.466 124.533 199.233 124.4 199.966 124.4C200.633 124.4 201.166 124.5 201.566 124.7C202.033 124.9 202.266 125.233 202.266 125.7C202.266 126.167 201.966 126.7 201.366 127.3C200.833 127.833 200.066 128.8 199.066 130.2C198.133 131.533 197.066 133.067 195.866 134.8C194.733 136.533 193.633 138.3 192.566 140.1C191.5 141.833 190.6 143.367 189.866 144.7C188.933 146.433 187.966 148.433 186.966 150.7C185.966 152.9 185.133 155 184.466 157C183.866 159.067 183.566 160.767 183.566 162.1C183.566 163.567 184.033 164.3 184.966 164.3C187.1 164.3 189.3 163.433 191.566 161.7C193.233 160.367 194.966 158.433 196.766 155.9C198.633 153.367 200.433 150.5 202.166 147.3C203.9 144.1 205.466 140.767 206.866 137.3C208.266 133.833 209.366 130.5 210.166 127.3C210.966 124.033 211.366 121.167 211.366 118.7C211.366 117.167 211.333 115.8 211.266 114.6C211.2 113.333 211 112.133 210.666 111C211 110.8 211.333 110.7 211.666 110.7C212.8 110.7 213.866 111.567 214.866 113.3C215.866 114.967 216.366 116.8 216.366 118.8C216.366 123.067 215.6 127.467 214.066 132C212.6 136.467 210.733 140.733 208.466 144.8C206.133 148.933 203.566 152.633 200.766 155.9C198.033 159.167 195.366 161.7 192.766 163.5C191.633 164.233 190.4 164.833 189.066 165.3C187.8 165.767 186.466 166 185.066 166ZM221.748 171.4C219.148 171.4 217.148 170.333 215.748 168.2C214.348 166.133 213.648 163.167 213.648 159.3C213.648 158.633 213.682 157.967 213.748 157.3C213.748 156.633 213.782 155.933 213.848 155.2C214.248 151.933 215.248 148.367 216.848 144.5C218.515 140.633 221.048 136.5 224.448 132.1C226.715 129.167 229.182 126.967 231.848 125.5C234.515 124.033 237.082 123.3 239.548 123.3C241.282 123.3 242.815 123.633 244.148 124.3C245.748 125.167 246.548 126.733 246.548 129C246.548 130.667 245.948 132.533 244.748 134.6C243.548 136.6 241.515 138.533 238.648 140.4C234.848 142.8 231.682 144.4 229.148 145.2C226.615 146 224.582 146.433 223.048 146.5C222.515 147.233 221.982 148.4 221.448 150C220.915 151.533 220.448 153.167 220.048 154.9C219.715 156.567 219.482 158.067 219.348 159.4C219.348 159.667 219.315 159.933 219.248 160.2C219.248 160.533 219.248 160.867 219.248 161.2C219.248 163.2 219.582 164.9 220.248 166.3C220.982 167.767 222.248 168.5 224.048 168.5C225.648 168.5 227.448 167.9 229.448 166.7C231.448 165.567 233.415 164.167 235.348 162.5C237.348 160.9 239.082 159.333 240.548 157.8C242.082 156.333 243.148 155.233 243.748 154.5L251.148 145.9L255.148 141.3C255.348 141.1 255.515 141 255.648 141C256.048 141 256.248 141.267 256.248 141.8C256.248 142 256.082 142.333 255.748 142.8C255.082 143.733 254.315 144.7 253.448 145.7C252.648 146.7 251.882 147.633 251.148 148.5C250.215 149.567 249.048 150.933 247.648 152.6C246.315 154.267 244.882 156 243.348 157.8C241.882 159.6 240.448 161.167 239.048 162.5C236.515 164.967 233.782 167.067 230.848 168.8C227.982 170.533 224.948 171.4 221.748 171.4ZM223.948 144.9C224.882 144.833 226.048 144.467 227.448 143.8C228.848 143.133 230.315 142.333 231.848 141.4C233.382 140.467 234.782 139.533 236.048 138.6C237.382 137.6 238.448 136.767 239.248 136.1C240.782 134.9 241.915 133.567 242.648 132.1C243.382 130.633 243.748 129.367 243.748 128.3C243.748 127.567 243.548 126.933 243.148 126.4C242.815 125.867 242.282 125.6 241.548 125.6C240.148 125.6 238.615 126.3 236.948 127.7C235.348 129.033 233.715 130.767 232.048 132.9C230.448 134.967 228.915 137.1 227.448 139.3C226.048 141.433 224.882 143.3 223.948 144.9Z" fill="white"/>
</svg>
