<svg width="1319" height="1024" viewBox="0 0 1319 1024" fill="none" xmlns="http://www.w3.org/2000/svg">
<g style="mix-blend-mode:overlay" opacity="0.24">
<path d="M1140.36 -377.746C903.314 -536.598 586.248 -287.121 591.138 -318.52C654.752 -727.127 293.408 -816.885 186.64 -822.894C98.9839 -827.824 -32.88 -761.756 -134.651 -657.282C-258.366 -562.97 -270.601 -215.427 -261.255 -53.4439C-198.507 465.814 -26.0966 1062.35 28.1581 1009.74C78 902 130.227 825.438 290.5 702C495 544.5 626.138 680.5 900.5 594C965.5 573.507 1052 484.5 1163.5 353C1377.5 58 1316 -260.037 1140.36 -377.746Z" fill="white"/>
<path d="M1140.36 -377.746C903.314 -536.598 586.248 -287.121 591.138 -318.52C654.752 -727.127 293.408 -816.885 186.64 -822.894C98.9839 -827.824 -32.88 -761.756 -134.651 -657.282C-258.366 -562.97 -270.601 -215.427 -261.255 -53.4439C-198.507 465.814 -26.0966 1062.35 28.1581 1009.74C78 902 130.227 825.438 290.5 702C495 544.5 626.138 680.5 900.5 594C965.5 573.507 1052 484.5 1163.5 353C1377.5 58 1316 -260.037 1140.36 -377.746Z" stroke="white" stroke-width="37.4939" stroke-miterlimit="3" stroke-linecap="round" stroke-linejoin="round"/>
</g>
</svg>
